<svg xmlns="http://www.w3.org/2000/svg" width="53.734" height="53.734" viewBox="0 0 53.734 53.734"><g id="Group_59" data-name="Group 59" transform="translate(0)"><path id="Path_96" fill="#00dbd0" d="M-1352.815,1215.407a26.9,26.9,0,0,0-26.87,26.869,26.9,26.9,0,0,0,26.87,26.865,26.888,26.888,0,0,0,26.864-26.865A26.9,26.9,0,0,0-1352.815,1215.407Zm7.452,15.939a.408.408,0,0,1-.409.4H-1349a1.436,1.436,0,0,0-1.436,1.437v3.382h4.593a.405.405,0,0,1,.408.4l0,.037-.4,4.768a.412.412,0,0,1-.4.372h-4.195v15.824a.4.4,0,0,1-.4.4h-5.782a.4.4,0,0,1-.4-.4h0v-15.824h-2.891a.4.4,0,0,1-.4-.408h0v-4.763a.405.405,0,0,1,.4-.409h2.891v-4.6a5.8,5.8,0,0,1,5.8-5.8h5.451a.409.409,0,0,1,.408.409Z" data-name="Path 96" transform="translate(1379.685 -1215.407)"/></g></svg>