<svg xmlns="http://www.w3.org/2000/svg" width="53.734" height="53.734" viewBox="0 0 53.734 53.734">
  <g id="Group_62" data-name="Group 62" transform="translate(0)">
    <path id="Path_101" data-name="Path 101" d="M-1335.972,1215.417a26.9,26.9,0,0,0-26.872,26.869,26.9,26.9,0,0,0,26.872,26.865,26.9,26.9,0,0,0,26.863-26.869A26.9,26.9,0,0,0-1335.972,1215.417Zm-6.722,38.947a.448.448,0,0,1-.446.45h-5.182a.447.447,0,0,1-.445-.45v-17.377a.447.447,0,0,1,.445-.451h5.182a.448.448,0,0,1,.446.451Zm-3.218-20.154a3.254,3.254,0,0,1-3.255-3.25,3.255,3.255,0,0,1,3.255-3.254,3.255,3.255,0,0,1,3.255,3.254,3.254,3.254,0,0,1-3.255,3.25Zm25.134,20.154a.451.451,0,0,1-.446.45h-5.186a.448.448,0,0,1-.446-.45v-9.328c0-2.455-.878-4.133-3.08-4.133a3.318,3.318,0,0,0-3.122,2.225,4.143,4.143,0,0,0-.193,1.48v9.756a.452.452,0,0,1-.451.45h-5.177a.448.448,0,0,1-.451-.446v0c.014-2.483.065-14.541.014-17.368a.442.442,0,0,1,.436-.45h5.177a.448.448,0,0,1,.451.446v2.147a6.035,6.035,0,0,1,5.48-3.02c4,0,6.992,2.615,6.992,8.228Z" transform="translate(1362.844 -1215.417)" fill="#00dbd0"/>
  </g>
</svg>
