<svg xmlns="http://www.w3.org/2000/svg" id="Group_63" width="53.734" height="53.734" data-name="Group 63" viewBox="0 0 53.734 53.734"><path id="Path_95" fill="#00dbd0" d="M-1387.259,1215.407a26.9,26.9,0,0,0-26.869,26.869,26.9,26.9,0,0,0,26.869,26.865,26.888,26.888,0,0,0,26.865-26.865A26.9,26.9,0,0,0-1387.259,1215.407Zm15.558,17.09a.757.757,0,0,1-.156.5,12.3,12.3,0,0,1-2.492,2.606c-.142.106-.39.216-.39.418a19.32,19.32,0,0,1-5.094,14.093,18.961,18.961,0,0,1-18.407,4.3,17.358,17.358,0,0,1-3.557-1.427c-.376-.206-.748-.417-1.11-.656-.092-.073-.161-.142-.083-.193s.138-.042.422,0a12.593,12.593,0,0,0,5.328-.684,8.138,8.138,0,0,0,3.506-1.858l.041-.042c-.234-.055-.463-.055-.7-.1a6.866,6.866,0,0,1-5.136-4.3c-.069-.17,0-.257.179-.225a7.413,7.413,0,0,0,2.442-.073,3.946,3.946,0,0,1-.826-.253,6.639,6.639,0,0,1-4.084-5.282,3.935,3.935,0,0,1-.041-.739c.013-.175.091-.225.243-.133a6.563,6.563,0,0,0,2.492.7,9.7,9.7,0,0,1-.794-.7,6.538,6.538,0,0,1-1.115-7.733c.124-.2.206-.2.353-.014a20.065,20.065,0,0,0,12.914,6.572c.134.018.147,0,.129-.152a6.829,6.829,0,0,1,.068-2.7,6.483,6.483,0,0,1,1.276-2.556,6.747,6.747,0,0,1,2.138-1.753,6.68,6.68,0,0,1,2.437-.721h0c.069,0,.138-.023.206-.027a6.311,6.311,0,0,1,2.791.449,6.622,6.622,0,0,1,1.817,1.115,2.835,2.835,0,0,1,.33.335.26.26,0,0,0,.261.069,16.208,16.208,0,0,0,3.754-1.437.173.173,0,0,1,.169-.019c.055.042.036.11,0,.166a5.924,5.924,0,0,1-1.055,1.919c-.3.372-1.051,1.3-1.556,1.381a12.868,12.868,0,0,0,3.162-.9c.128-.059.115-.082.115,0Z" data-name="Path 95" transform="translate(1414.129 -1215.407)"/><path id="Path_102" fill="#ff6835" d="M-1408.233,1221.094v-.055l-.041.055Z" data-name="Path 102" transform="translate(1435.143 -1195.192)"/></svg>